<?xml version="1.0" encoding="UTF-8" standalone="no"?>
<svg
   viewBox="0 0 967.58564 419.39663"
   height="419.39664"
   width="967.58563"
   xml:space="preserve"
   id="svg2"
   version="1.1"
   sodipodi:docname="20240209_Fig_DPFT_Model_Overview_v03.svg"
   xmlns:inkscape="http://www.inkscape.org/namespaces/inkscape"
   xmlns:sodipodi="http://sodipodi.sourceforge.net/DTD/sodipodi-0.dtd"
   xmlns="http://www.w3.org/2000/svg"
   xmlns:svg="http://www.w3.org/2000/svg"
   xmlns:rdf="http://www.w3.org/1999/02/22-rdf-syntax-ns#"
   xmlns:cc="http://creativecommons.org/ns#"
   xmlns:dc="http://purl.org/dc/elements/1.1/"><sodipodi:namedview
     id="namedview611"
     pagecolor="#ffffff"
     bordercolor="#666666"
     borderopacity="1.0"
     inkscape:showpageshadow="2"
     inkscape:pageopacity="0.0"
     inkscape:pagecheckerboard="0"
     inkscape:deskcolor="#d1d1d1"
     showgrid="false" /><metadata
     id="metadata8"><rdf:RDF><cc:Work
         rdf:about=""><dc:format>image/svg+xml</dc:format><dc:type
           rdf:resource="http://purl.org/dc/dcmitype/StillImage" /></cc:Work></rdf:RDF></metadata><defs
     id="defs6"><clipPath
       id="clipPath32"
       clipPathUnits="userSpaceOnUse"><path
         style="clip-rule:evenodd"
         id="path30"
         d="M 0,127.56 H 345.84 V 4.5776e-5 L 3.0518e-5,3.8147e-5" /></clipPath><clipPath
       id="clipPath42"
       clipPathUnits="userSpaceOnUse"><path
         style="clip-rule:evenodd"
         id="path40"
         d="M 5.153e-6,0 H 345.84001 V 127.56 H 5.153e-6 Z" /></clipPath><clipPath
       id="clipPath56"
       clipPathUnits="userSpaceOnUse"><path
         style="clip-rule:evenodd"
         id="path54"
         d="M 5.153e-6,0 H 345.84001 V 127.56 H 5.153e-6 Z" /></clipPath><clipPath
       id="clipPath70"
       clipPathUnits="userSpaceOnUse"><path
         style="clip-rule:evenodd"
         id="path68"
         d="M 5.153e-6,0 H 345.84001 V 127.56 H 5.153e-6 Z" /></clipPath><clipPath
       id="clipPath82"
       clipPathUnits="userSpaceOnUse"><path
         style="clip-rule:evenodd"
         id="path80"
         d="M 5.153e-6,0 H 345.84001 V 127.56 H 5.153e-6 Z" /></clipPath><clipPath
       id="clipPath98"
       clipPathUnits="userSpaceOnUse"><path
         style="clip-rule:evenodd"
         id="path96"
         d="M 5.153e-6,0 H 345.84001 V 127.56 H 5.153e-6 Z" /></clipPath><clipPath
       id="clipPath110"
       clipPathUnits="userSpaceOnUse"><path
         style="clip-rule:evenodd"
         id="path108"
         d="M 5.153e-6,0 H 345.84001 V 127.56 H 5.153e-6 Z" /></clipPath><clipPath
       id="clipPath122"
       clipPathUnits="userSpaceOnUse"><path
         style="clip-rule:evenodd"
         id="path120"
         d="M 5.153e-6,0 H 345.84001 V 127.56 H 5.153e-6 Z" /></clipPath><clipPath
       id="clipPath136"
       clipPathUnits="userSpaceOnUse"><path
         style="clip-rule:evenodd"
         id="path134"
         d="M 5.153e-6,0 H 345.84001 V 127.56 H 5.153e-6 Z" /></clipPath><clipPath
       id="clipPath150"
       clipPathUnits="userSpaceOnUse"><path
         style="clip-rule:evenodd"
         id="path148"
         d="M 5.153e-6,0 H 345.84001 V 127.56 H 5.153e-6 Z" /></clipPath><clipPath
       id="clipPath164"
       clipPathUnits="userSpaceOnUse"><path
         style="clip-rule:evenodd"
         id="path162"
         d="M 5.153e-6,0 H 345.84001 V 127.56 H 5.153e-6 Z" /></clipPath><clipPath
       id="clipPath248"
       clipPathUnits="userSpaceOnUse"><path
         style="clip-rule:evenodd"
         id="path246"
         d="M 5.153e-6,0 H 345.84001 V 127.56 H 5.153e-6 Z" /></clipPath><clipPath
       id="clipPath260"
       clipPathUnits="userSpaceOnUse"><path
         style="clip-rule:evenodd"
         id="path258"
         d="M 5.153e-6,0 H 345.84001 V 127.56 H 5.153e-6 Z" /></clipPath><clipPath
       id="clipPath272"
       clipPathUnits="userSpaceOnUse"><path
         style="clip-rule:evenodd"
         id="path270"
         d="M 5.153e-6,0 H 345.84001 V 127.56 H 5.153e-6 Z" /></clipPath><clipPath
       id="clipPath284"
       clipPathUnits="userSpaceOnUse"><path
         style="clip-rule:evenodd"
         id="path282"
         d="M 5.153e-6,0 H 345.84001 V 127.56 H 5.153e-6 Z" /></clipPath><clipPath
       id="clipPath308"
       clipPathUnits="userSpaceOnUse"><path
         style="clip-rule:evenodd"
         id="path306"
         d="M 5.153e-6,0 H 345.84001 V 127.56 H 5.153e-6 Z" /></clipPath><clipPath
       id="clipPath382"
       clipPathUnits="userSpaceOnUse"><path
         style="clip-rule:evenodd"
         id="path380"
         d="M 5.153e-6,0 H 345.84001 V 127.56 H 5.153e-6 Z" /></clipPath><clipPath
       id="clipPath402"
       clipPathUnits="userSpaceOnUse"><path
         style="clip-rule:evenodd"
         id="path400"
         d="M 5.153e-6,0 H 345.84001 V 127.56 H 5.153e-6 Z" /></clipPath><clipPath
       id="clipPath422"
       clipPathUnits="userSpaceOnUse"><path
         style="clip-rule:evenodd"
         id="path420"
         d="M 5.153e-6,0 H 345.84001 V 127.56 H 5.153e-6 Z" /></clipPath><clipPath
       id="clipPath434"
       clipPathUnits="userSpaceOnUse"><path
         style="clip-rule:evenodd"
         id="path432"
         d="M 5.153e-6,0 H 345.84001 V 127.56 H 5.153e-6 Z" /></clipPath><clipPath
       id="clipPath462"
       clipPathUnits="userSpaceOnUse"><path
         style="clip-rule:evenodd"
         id="path460"
         d="M 5.153e-6,0 H 345.84001 V 127.56 H 5.153e-6 Z" /></clipPath><clipPath
       id="clipPath474"
       clipPathUnits="userSpaceOnUse"><path
         style="clip-rule:evenodd"
         id="path472"
         d="M 5.153e-6,0 H 345.84001 V 127.56 H 5.153e-6 Z" /></clipPath><clipPath
       id="clipPath486"
       clipPathUnits="userSpaceOnUse"><path
         style="clip-rule:evenodd"
         id="path484"
         d="M 5.153e-6,0 H 345.84001 V 127.56 H 5.153e-6 Z" /></clipPath><clipPath
       id="clipPath498"
       clipPathUnits="userSpaceOnUse"><path
         style="clip-rule:evenodd"
         id="path496"
         d="M 5.153e-6,0 H 345.84001 V 127.56 H 5.153e-6 Z" /></clipPath><clipPath
       id="clipPath558"
       clipPathUnits="userSpaceOnUse"><path
         style="clip-rule:evenodd"
         id="path556"
         d="M 5.153e-6,0 H 345.84001 V 127.56 H 5.153e-6 Z" /></clipPath><clipPath
       id="clipPath570"
       clipPathUnits="userSpaceOnUse"><path
         style="clip-rule:evenodd"
         id="path568"
         d="M 5.153e-6,0 H 345.84001 V 127.56 H 5.153e-6 Z" /></clipPath><clipPath
       id="clipPath582"
       clipPathUnits="userSpaceOnUse"><path
         style="clip-rule:evenodd"
         id="path580"
         d="M -9.54e-7,4.5776e-5 H 345.84 V 127.56005 H -9.54e-7 Z" /></clipPath><clipPath
       id="clipPath600"
       clipPathUnits="userSpaceOnUse"><path
         style="clip-rule:evenodd"
         id="path598"
         d="M -3.0518e-5,4.5776e-5 H 345.83997 V 127.56005 H -3.0518e-5 Z" /></clipPath></defs><g
     transform="matrix(2.7977842,0,0,-3.44426,2.6690861e-6,431.72707)"
     id="g10"><path
       id="path22"
       style="fill:#999999;fill-opacity:1;fill-rule:nonzero;stroke:none"
       d="m 163.56,87.26 h 54.93 V 72.752 h -1 V 86.76 l 0.5,-0.5 h -54.43 z m 56.43,-13.508 -2,-4 -2,4 z" /><path
       id="path24"
       style="fill:#999999;fill-opacity:1;fill-rule:nonzero;stroke:none"
       d="m 37.08,85.22 h 82.04 v -1 H 37.08 Z m 81.04,1.5 4,-2 -4,-2 z" /><g
       id="g26"><g
         clip-path="url(#clipPath32)"
         id="g28"><path
           id="path34"
           style="fill:#999999;fill-opacity:1;fill-rule:nonzero;stroke:none"
           d="M 329.15,36.12 V 7.2736 h -37.19 v 1 h 36.69 l -0.5,-0.5 V 36.12 Z m -36.19,-30.3464 -4,2 4,2 z" /></g></g><g
       id="g36"><g
         clip-path="url(#clipPath42)"
         id="g38"><text
   id="text46"
   style="font-variant:normal;font-weight:normal;font-size:6.024px;font-family:ArialMT;-inkscape-font-specification:ArialMT;writing-mode:lr-tb;fill:#000000;fill-opacity:1;fill-rule:nonzero;stroke:none"
   transform="matrix(1,0,0,-1,301.01,12.984)"><tspan
     id="tspan44"
     y="0"
     x="0 1.674672 3.349344 6.7167602 8.7528725 12.102216 13.776888 15.228672 18.578016">Iteration</tspan></text>
</g></g><path
       id="path48"
       style="fill:#999999;fill-opacity:1;fill-rule:nonzero;stroke:none"
       d="m 163.56,7.0628 h 41.6 V 27.24 h -1 V 7.5628 l 0.5,0.5 h -41.1 z m 43.1,19.1772 -2,4 -2,-4 z" /><g
       id="g50"><g
         clip-path="url(#clipPath56)"
         id="g52"><text
   id="text60"
   style="font-variant:normal;font-weight:normal;font-size:6px;font-family:ArialMT;-inkscape-font-specification:ArialMT;writing-mode:lr-tb;fill:#000000;fill-opacity:1;fill-rule:nonzero;stroke:none"
   transform="matrix(1,0,0,-1,242.33,27.12)"><tspan
     id="tspan58"
     y="0"
     x="0 4.6680002 8.0340004 11.388 13.422 16.422001 17.856001 21.209999">Querying</tspan></text>
</g></g><path
       id="path62"
       style="fill:#999999;fill-opacity:1;fill-rule:nonzero;stroke:none"
       d="m 36.96,29.78 h 19.677 v -1 H 36.96 Z m 18.677,1.5 4,-2 -4,-2 z" /><g
       id="g64"><g
         clip-path="url(#clipPath70)"
         id="g66"><text
   id="text74"
   style="font-variant:normal;font-weight:normal;font-size:6px;font-family:ArialMT;-inkscape-font-specification:ArialMT;writing-mode:lr-tb;fill:#000000;fill-opacity:1;fill-rule:nonzero;stroke:none"
   transform="matrix(1,0,0,-1,34.776,33.648)"><tspan
     id="tspan72"
     y="0"
     x="0 3.96 5.994 9.3479996 10.548 13.902 16.902 18.57 20.016001 23.370001">Projection</tspan></text>
</g></g><g
       id="g76"><g
         clip-path="url(#clipPath82)"
         id="g78"><text
   id="text86"
   style="font-variant:normal;font-weight:normal;font-size:6px;font-family:ArialMT;-inkscape-font-specification:ArialMT;writing-mode:lr-tb;fill:#000000;fill-opacity:1;fill-rule:nonzero;stroke:none"
   transform="matrix(1,0,0,-1,97.44,56.328)"><tspan
     id="tspan84"
     y="0"
     x="0 3.96 7.3140001 10.314 13.314 16.667999 20.021999 23.375999">Backbone</tspan></text>
</g></g><path
       id="path88"
       style="fill:#999999;fill-opacity:1;fill-rule:nonzero;stroke:none"
       d="m 99.12,51.62 h 19.68 v -1 H 99.12 Z m 18.68,1.5 4,-2 -4,-2 z" /><path
       id="path90"
       style="fill:#999999;fill-opacity:1;fill-rule:nonzero;stroke:none"
       d="m 99.12,8.3 h 19.68 v -1 H 99.12 Z m 18.68,1.5 4,-2.0001 -4,-1.9999 z" /><g
       id="g92"><g
         clip-path="url(#clipPath98)"
         id="g94"><text
   id="text102"
   style="font-variant:normal;font-weight:normal;font-size:6.024px;font-family:ArialMT;-inkscape-font-specification:ArialMT;writing-mode:lr-tb;fill:#000000;fill-opacity:1;fill-rule:nonzero;stroke:none"
   transform="matrix(1,0,0,-1,97.44,12.696)"><tspan
     id="tspan100"
     y="0"
     x="0 3.957768 7.3071122 10.319112 13.331112 16.680456 20.0298 23.391191">Backbone</tspan></text>
</g></g><g
       id="g104"><g
         clip-path="url(#clipPath110)"
         id="g106"><text
   id="text114"
   style="font-variant:normal;font-weight:normal;font-size:6px;font-family:ArialMT;-inkscape-font-specification:ArialMT;writing-mode:lr-tb;fill:#000000;fill-opacity:1;fill-rule:nonzero;stroke:none"
   transform="matrix(1,0,0,-1,168.05,89.424)"><tspan
     id="tspan112"
     y="0"
     x="0 4.3319998 7.6680002 10.668">Neck</tspan></text>
</g></g><g
       id="g116"><g
         clip-path="url(#clipPath122)"
         id="g118"><text
   id="text126"
   style="font-variant:normal;font-weight:normal;font-size:6.024px;font-family:ArialMT;-inkscape-font-specification:ArialMT;writing-mode:lr-tb;fill:#000000;fill-opacity:1;fill-rule:nonzero;stroke:none"
   transform="matrix(1,0,0,-1,168.05,12.984)"><tspan
     id="tspan124"
     y="0"
     x="0 4.3192081 7.6685519 10.680552">Neck</tspan></text>
</g></g><path
       id="path128"
       style="fill:#999999;fill-opacity:1;fill-rule:nonzero;stroke:none"
       d="m 163.56,51.62 h 19.68 v -1 h -19.68 z m 18.68,1.5 4,-2 -4,-2 z" /><g
       id="g130"><g
         clip-path="url(#clipPath136)"
         id="g132"><text
   id="text140"
   style="font-variant:normal;font-weight:normal;font-size:6px;font-family:ArialMT;-inkscape-font-specification:ArialMT;writing-mode:lr-tb;fill:#000000;fill-opacity:1;fill-rule:nonzero;stroke:none"
   transform="matrix(1,0,0,-1,168.05,56.28)"><tspan
     id="tspan138"
     y="0"
     x="0 4.3319998 7.6680002 10.668">Neck</tspan></text>
</g></g><path
       id="path142"
       style="fill:#999999;fill-opacity:1;fill-rule:nonzero;stroke:none"
       d="m 228.84,51.62 h 19.68 v -1 h -19.68 z m 18.68,1.5 4,-2 -4,-2 z" /><g
       id="g144"><g
         clip-path="url(#clipPath150)"
         id="g146"><text
   id="text154"
   style="font-variant:normal;font-weight:normal;font-size:6px;font-family:ArialMT;-inkscape-font-specification:ArialMT;writing-mode:lr-tb;fill:#000000;fill-opacity:1;fill-rule:nonzero;stroke:none"
   transform="matrix(1,0,0,-1,231.1,56.28)"><tspan
     id="tspan152"
     y="0"
     x="0 3.714 7.0679998 10.068 11.502 14.856">Fusion</tspan></text>
</g></g><path
       id="path156"
       style="fill:#999999;fill-opacity:1;fill-rule:nonzero;stroke:none"
       d="m 286.68,51.62 h 19.68 v -1 h -19.68 z m 18.68,1.5 4,-2 -4,-2 z" /><g
       id="g158"><g
         clip-path="url(#clipPath164)"
         id="g160"><text
   id="text168"
   style="font-variant:normal;font-weight:normal;font-size:6px;font-family:ArialMT;-inkscape-font-specification:ArialMT;writing-mode:lr-tb;fill:#000000;fill-opacity:1;fill-rule:nonzero;stroke:none"
   transform="matrix(1,0,0,-1,290.81,56.472)"><tspan
     id="tspan166"
     y="0"
     x="0 4.3319998 7.6680002 11.034">Head</tspan></text>
</g></g><path
       id="path170"
       style="fill:#005293;fill-opacity:1;fill-rule:evenodd;stroke:none"
       d="m 136.92,77.88 h 0.23775 v 9.3578 H 136.92 Z" /><path
       id="path172"
       style="fill:#004276;fill-opacity:1;fill-rule:evenodd;stroke:none"
       d="m 137.16,87.238 3.36,3.362 v -9.358 l -3.36,-3.362 z" /><path
       id="path174"
       style="fill:#3274a8;fill-opacity:1;fill-rule:evenodd;stroke:none"
       d="m 136.92,87.238 3.36,3.362 h 0.24 l -3.36,-3.362 z" /><path
       id="path176"
       style="fill:none;stroke:#ffffff;stroke-width:0.75;stroke-linecap:butt;stroke-linejoin:miter;stroke-miterlimit:10;stroke-dasharray:none;stroke-opacity:1"
       d="m 136.92,87.238 3.36,3.362 h 0.24 v -9.358 l -3.36,-3.362 h -0.24 z m 0,0 h 0.24 l 3.36,3.362 m -3.36,-3.362 V 77.88" /><path
       id="path178"
       style="fill:#005293;fill-opacity:1;fill-rule:evenodd;stroke:none"
       d="m 139.08,76.32 h 0.35661 V 90.237 H 139.08 Z" /><path
       id="path180"
       style="fill:#004276;fill-opacity:1;fill-rule:evenodd;stroke:none"
       d="m 139.44,90.237 5.04,5.043 V 81.363 l -5.04,-5.043 z" /><path
       id="path182"
       style="fill:#3274a8;fill-opacity:1;fill-rule:evenodd;stroke:none"
       d="m 139.08,90.237 5.04,5.043 h 0.36 l -5.04,-5.043 z" /><path
       id="path184"
       style="fill:none;stroke:#ffffff;stroke-width:0.75;stroke-linecap:butt;stroke-linejoin:miter;stroke-miterlimit:10;stroke-dasharray:none;stroke-opacity:1"
       d="m 139.08,90.237 5.04,5.043 h 0.36 V 81.363 l -5.04,-5.043 h -0.36 z m 0,0 h 0.36 l 5.04,5.043 m -5.04,-5.043 V 76.32" /><path
       id="path186"
       style="fill:#005293;fill-opacity:1;fill-rule:evenodd;stroke:none"
       d="m 141.72,75 h 0.45171 V 92.372 H 141.72 Z" /><path
       id="path188"
       style="fill:#004276;fill-opacity:1;fill-rule:evenodd;stroke:none"
       d="m 142.17,92.372 6.39,6.388 V 81.388 L 142.17,75 Z" /><path
       id="path190"
       style="fill:#3274a8;fill-opacity:1;fill-rule:evenodd;stroke:none"
       d="m 141.72,92.372 6.39,6.388 h 0.45 l -6.39,-6.388 z" /><path
       id="path192"
       style="fill:none;stroke:#ffffff;stroke-width:0.75;stroke-linecap:butt;stroke-linejoin:miter;stroke-miterlimit:10;stroke-dasharray:none;stroke-opacity:1"
       d="m 141.72,92.372 6.39,6.388 h 0.45 V 81.388 L 142.17,75 h -0.45 z m 0,0 h 0.45 l 6.39,6.388 m -6.39,-6.388 V 75" /><path
       id="path194"
       style="fill:#003359;fill-opacity:1;fill-rule:evenodd;stroke:none"
       d="m 127.8,4.08 h 24.584 V 4.42434 H 127.8 Z" /><path
       id="path196"
       style="fill:#002948;fill-opacity:1;fill-rule:evenodd;stroke:none"
       d="M 152.38,4.4243 157.56,9.6 V 9.2557 L 152.38,4.08 Z" /><path
       id="path198"
       style="fill:#325b7a;fill-opacity:1;fill-rule:evenodd;stroke:none"
       d="M 127.8,4.4243 132.98,9.6 h 24.58 l -5.18,-5.1757 z" /><path
       id="path200"
       style="fill:none;stroke:#ffffff;stroke-width:1;stroke-linecap:butt;stroke-linejoin:miter;stroke-miterlimit:10;stroke-dasharray:none;stroke-opacity:1"
       d="M 127.8,4.4243 132.98,9.6 h 24.58 V 9.2557 L 152.38,4.08 H 127.8 Z m 0,0 h 24.58 L 157.56,9.6 M 152.38,4.4243 V 4.08" /><path
       id="path202"
       style="fill:#003359;fill-opacity:1;fill-rule:evenodd;stroke:none"
       d="m 131.64,6.36 h 19.229 V 6.62949 H 131.64 Z" /><path
       id="path204"
       style="fill:#002948;fill-opacity:1;fill-rule:evenodd;stroke:none"
       d="m 150.87,6.6295 4.05,4.0505 V 10.411 L 150.87,6.36 Z" /><path
       id="path206"
       style="fill:#325b7a;fill-opacity:1;fill-rule:evenodd;stroke:none"
       d="m 131.64,6.6295 4.05,4.0505 h 19.23 l -4.05,-4.0505 z" /><path
       id="path208"
       style="fill:none;stroke:#ffffff;stroke-width:0.75;stroke-linecap:butt;stroke-linejoin:miter;stroke-miterlimit:10;stroke-dasharray:none;stroke-opacity:1"
       d="m 131.64,6.6295 4.05,4.0505 h 19.23 V 10.411 L 150.87,6.36 h -19.23 z m 0,0 h 19.23 l 4.05,4.0505 M 150.87,6.6295 V 6.36" /><path
       id="path210"
       style="fill:#003359;fill-opacity:1;fill-rule:evenodd;stroke:none"
       d="m 135.48,8.52 h 13.387 V 8.70714 H 135.48 Z" /><path
       id="path212"
       style="fill:#002948;fill-opacity:1;fill-rule:evenodd;stroke:none"
       d="m 148.87,8.7071 2.81,2.8129 V 11.333 L 148.87,8.52 Z" /><path
       id="path214"
       style="fill:#325b7a;fill-opacity:1;fill-rule:evenodd;stroke:none"
       d="m 135.48,8.7071 2.81,2.8129 h 13.39 l -2.81,-2.8129 z" /><path
       id="path216"
       style="fill:none;stroke:#ffffff;stroke-width:0.75;stroke-linecap:butt;stroke-linejoin:miter;stroke-miterlimit:10;stroke-dasharray:none;stroke-opacity:1"
       d="m 135.48,8.7071 2.81,2.8129 h 13.39 V 11.333 L 148.87,8.52 h -13.39 z m 0,0 h 13.39 l 2.81,2.8129 M 148.87,8.7071 V 8.52" /><path
       id="path218"
       style="fill:#005293;fill-opacity:1;fill-rule:evenodd;stroke:none"
       d="m 136.92,42.12 h 0.23775 v 9.3578 H 136.92 Z" /><path
       id="path220"
       style="fill:#004276;fill-opacity:1;fill-rule:evenodd;stroke:none"
       d="m 137.16,51.478 3.36,3.362 v -9.358 l -3.36,-3.362 z" /><path
       id="path222"
       style="fill:#3274a8;fill-opacity:1;fill-rule:evenodd;stroke:none"
       d="m 136.92,51.478 3.36,3.362 h 0.24 l -3.36,-3.362 z" /><path
       id="path224"
       style="fill:none;stroke:#ffffff;stroke-width:0.75;stroke-linecap:butt;stroke-linejoin:miter;stroke-miterlimit:10;stroke-dasharray:none;stroke-opacity:1"
       d="m 136.92,51.478 3.36,3.362 h 0.24 v -9.358 l -3.36,-3.362 h -0.24 z m 0,0 h 0.24 l 3.36,3.362 m -3.36,-3.362 V 42.12" /><path
       id="path226"
       style="fill:#005293;fill-opacity:1;fill-rule:evenodd;stroke:none"
       d="m 139.08,40.56 h 0.35661 V 54.477 H 139.08 Z" /><path
       id="path228"
       style="fill:#004276;fill-opacity:1;fill-rule:evenodd;stroke:none"
       d="m 139.44,54.477 5.04,5.043 V 45.603 l -5.04,-5.043 z" /><path
       id="path230"
       style="fill:#3274a8;fill-opacity:1;fill-rule:evenodd;stroke:none"
       d="m 139.08,54.477 5.04,5.043 h 0.36 l -5.04,-5.043 z" /><path
       id="path232"
       style="fill:none;stroke:#ffffff;stroke-width:0.75;stroke-linecap:butt;stroke-linejoin:miter;stroke-miterlimit:10;stroke-dasharray:none;stroke-opacity:1"
       d="m 139.08,54.477 5.04,5.043 h 0.36 V 45.603 l -5.04,-5.043 h -0.36 z m 0,0 h 0.36 l 5.04,5.043 m -5.04,-5.043 V 40.56" /><path
       id="path234"
       style="fill:#005293;fill-opacity:1;fill-rule:evenodd;stroke:none"
       d="m 141.72,39.24 h 0.45171 V 56.612 H 141.72 Z" /><path
       id="path236"
       style="fill:#004276;fill-opacity:1;fill-rule:evenodd;stroke:none"
       d="M 142.17,56.612 148.56,63 V 45.628 l -6.39,-6.388 z" /><path
       id="path238"
       style="fill:#3274a8;fill-opacity:1;fill-rule:evenodd;stroke:none"
       d="M 141.72,56.612 148.11,63 h 0.45 l -6.39,-6.388 z" /><path
       id="path240"
       style="fill:none;stroke:#ffffff;stroke-width:0.75;stroke-linecap:butt;stroke-linejoin:miter;stroke-miterlimit:10;stroke-dasharray:none;stroke-opacity:1"
       d="M 141.72,56.612 148.11,63 h 0.45 V 45.628 l -6.39,-6.388 h -0.45 z m 0,0 h 0.45 L 148.56,63 m -6.39,-6.388 V 39.24" /><g
       id="g242"><g
         clip-path="url(#clipPath248)"
         id="g244"><text
   id="text252"
   style="font-variant:normal;font-weight:normal;font-size:6.024px;font-family:ArialMT;-inkscape-font-specification:ArialMT;writing-mode:lr-tb;fill:#000000;fill-opacity:1;fill-rule:nonzero;stroke:none"
   transform="matrix(1,0,0,-1,128.98,120.77)"><tspan
     id="tspan250"
     y="0"
     x="0 4.945704 8.3251677 9.7588797 11.433552">Multi</tspan></text>
</g></g><g
       id="g254"><g
         clip-path="url(#clipPath260)"
         id="g256"><text
   id="text264"
   style="font-variant:normal;font-weight:normal;font-size:6.024px;font-family:ArialMT;-inkscape-font-specification:ArialMT;writing-mode:lr-tb;fill:#000000;fill-opacity:1;fill-rule:nonzero;stroke:none"
   transform="matrix(1,0,0,-1,141.84,120.77)"><tspan
     id="tspan262"
     y="0"
     x="0">-</tspan></text>
</g></g><g
       id="g266"><g
         clip-path="url(#clipPath272)"
         id="g268"><text
   id="text276"
   style="font-variant:normal;font-weight:normal;font-size:6.024px;font-family:ArialMT;-inkscape-font-specification:ArialMT;writing-mode:lr-tb;fill:#000000;fill-opacity:1;fill-rule:nonzero;stroke:none"
   transform="matrix(1,0,0,-1,143.88,120.77)"><tspan
     id="tspan274"
     y="0"
     x="0 1.433712 4.7830558 7.7950559 11.1444">level</tspan></text>
</g></g><g
       id="g278"><g
         clip-path="url(#clipPath284)"
         id="g280"><text
   id="text288"
   style="font-variant:normal;font-weight:normal;font-size:6px;font-family:ArialMT;-inkscape-font-specification:ArialMT;writing-mode:lr-tb;fill:#000000;fill-opacity:1;fill-rule:nonzero;stroke:none"
   transform="matrix(1,0,0,-1,124.18,112.46)"><tspan
     id="tspan286"
     y="0"
     x="0 3.714 7.0679998 10.422 12.09 15.456 17.49 20.844 22.284 27.204 30.558001 33.911999">Feature Maps</tspan></text>
</g></g><path
       id="path290"
       style="fill:none;stroke:#005293;stroke-width:0.75;stroke-linecap:butt;stroke-linejoin:miter;stroke-miterlimit:10;stroke-dasharray:none;stroke-opacity:1"
       d="m 313.32,48.45 1.47,1.47 H 324 v -4.41 l -1.47,-1.47 h -9.21 z m 0,0 h 9.21 l 1.47,1.47 m -1.47,-1.47 v -4.41" /><path
       id="path292"
       style="fill:none;stroke:#005293;stroke-width:0.75;stroke-linecap:butt;stroke-linejoin:miter;stroke-miterlimit:10;stroke-dasharray:none;stroke-opacity:1"
       d="m 324,56.7 1.5,1.5 h 9.18 v -4.5 l -1.5,-1.5 H 324 Z m 0,0 h 9.18 l 1.5,1.5 m -1.5,-1.5 v -4.5" /><path
       id="path294"
       style="fill:none;stroke:#005293;stroke-width:0.75;stroke-linecap:butt;stroke-linejoin:miter;stroke-miterlimit:10;stroke-dasharray:none;stroke-opacity:1"
       d="m 333.48,48.45 1.47,1.47 h 9.21 v -4.41 l -1.47,-1.47 h -9.21 z m 0,0 h 9.21 l 1.47,1.47 m -1.47,-1.47 v -4.41" /><path
       id="path296"
       style="fill:#005293;fill-opacity:1;fill-rule:evenodd;stroke:none"
       d="m 317.64,46.32 c 0,0.331 0.27,0.6 0.6,0.6 0.33,0 0.6,-0.269 0.6,-0.6 0,-0.331 -0.27,-0.6 -0.6,-0.6 -0.33,0 -0.6,0.269 -0.6,0.6 z" /><path
       id="path298"
       style="fill:#005293;fill-opacity:1;fill-rule:evenodd;stroke:none"
       d="m 337.92,46.32 c 0,0.331 0.27,0.6 0.6,0.6 0.33,0 0.6,-0.269 0.6,-0.6 0,-0.331 -0.27,-0.6 -0.6,-0.6 -0.33,0 -0.6,0.269 -0.6,0.6 z" /><path
       id="path300"
       style="fill:#005293;fill-opacity:1;fill-rule:evenodd;stroke:none"
       d="m 328.08,54.24 c 0,0.331 0.27,0.6 0.6,0.6 0.33,0 0.6,-0.269 0.6,-0.6 0,-0.331 -0.27,-0.6 -0.6,-0.6 -0.33,0 -0.6,0.269 -0.6,0.6 z" /><g
       id="g302"><g
         clip-path="url(#clipPath308)"
         id="g304"><text
   id="text312"
   style="font-variant:normal;font-weight:normal;font-size:6.024px;font-family:ArialMT;-inkscape-font-specification:ArialMT;writing-mode:lr-tb;fill:#000000;fill-opacity:1;fill-rule:nonzero;stroke:none"
   transform="matrix(1,0,0,-1,315.29,116.62)"><tspan
     id="tspan310"
     y="0"
     x="0 3.349344 7.6806002 9.3552723 14.041944 17.391289 18.602112 21.951456 24.963455 26.638128">3D Objects</tspan></text>
</g></g><path
       id="path314"
       style="fill:#64a0c8;fill-opacity:1;fill-rule:evenodd;stroke:none"
       d="m 277.08,5.76 c 0,0.3314 0.3,0.6 0.66,0.6 0.36,0 0.66,-0.2686 0.66,-0.6 0,-0.3314 -0.3,-0.6 -0.66,-0.6 -0.36,0 -0.66,0.2686 -0.66,0.6 z" /><path
       id="path316"
       style="fill:#4472c4;fill-opacity:1;fill-rule:evenodd;stroke:none"
       d="m 281.52,9.78 c 0,0.365 0.3,0.66 0.66,0.66 0.36,0 0.66,-0.295 0.66,-0.66 0,-0.3645 -0.3,-0.66 -0.66,-0.66 -0.36,0 -0.66,0.2955 -0.66,0.66 z" /><path
       id="path318"
       style="fill:#98c6ea;fill-opacity:1;fill-rule:evenodd;stroke:none"
       d="m 279.36,7.8 c 0,0.3314 0.27,0.6 0.6,0.6 0.33,0 0.6,-0.2686 0.6,-0.6 0,-0.3314 -0.27,-0.6 -0.6,-0.6 -0.33,0 -0.6,0.2686 -0.6,0.6 z" /><path
       id="path320"
       style="fill:#003359;fill-opacity:1;fill-rule:evenodd;stroke:none"
       d="m 271.68,5.76 c 0,0.3314 0.3,0.6 0.66,0.6 0.36,0 0.66,-0.2686 0.66,-0.6 0,-0.3314 -0.3,-0.6 -0.66,-0.6 -0.36,0 -0.66,0.2686 -0.66,0.6 z" /><path
       id="path322"
       style="fill:#4472c4;fill-opacity:1;fill-rule:evenodd;stroke:none"
       d="m 276.12,9.78 c 0,0.365 0.27,0.66 0.6,0.66 0.33,0 0.6,-0.295 0.6,-0.66 0,-0.3645 -0.27,-0.66 -0.6,-0.66 -0.33,0 -0.6,0.2955 -0.6,0.66 z" /><path
       id="path324"
       style="fill:#4472c4;fill-opacity:1;fill-rule:evenodd;stroke:none"
       d="m 273.84,7.8 c 0,0.3314 0.3,0.6 0.66,0.6 0.36,0 0.66,-0.2686 0.66,-0.6 0,-0.3314 -0.3,-0.6 -0.66,-0.6 -0.36,0 -0.66,0.2686 -0.66,0.6 z" /><path
       id="path326"
       style="fill:#4472c4;fill-opacity:1;fill-rule:evenodd;stroke:none"
       d="m 266.28,5.76 c 0,0.3314 0.3,0.6 0.66,0.6 0.36,0 0.66,-0.2686 0.66,-0.6 0,-0.3314 -0.3,-0.6 -0.66,-0.6 -0.36,0 -0.66,0.2686 -0.66,0.6 z" /><path
       id="path328"
       style="fill:#98c6ea;fill-opacity:1;fill-rule:evenodd;stroke:none"
       d="m 270.6,9.78 c 0,0.365 0.3,0.66 0.66,0.66 0.36,0 0.66,-0.295 0.66,-0.66 0,-0.3645 -0.3,-0.66 -0.66,-0.66 -0.36,0 -0.66,0.2955 -0.66,0.66 z" /><path
       id="path330"
       style="fill:#64a0c8;fill-opacity:1;fill-rule:evenodd;stroke:none"
       d="m 268.44,7.8 c 0,0.3314 0.3,0.6 0.66,0.6 0.36,0 0.66,-0.2686 0.66,-0.6 0,-0.3314 -0.3,-0.6 -0.66,-0.6 -0.36,0 -0.66,0.2686 -0.66,0.6 z" /><path
       id="path332"
       style="fill:#003359;fill-opacity:1;fill-rule:evenodd;stroke:none"
       d="m 260.88,5.76 c 0,0.3314 0.27,0.6 0.6,0.6 0.33,0 0.6,-0.2686 0.6,-0.6 0,-0.3314 -0.27,-0.6 -0.6,-0.6 -0.33,0 -0.6,0.2686 -0.6,0.6 z" /><path
       id="path334"
       style="fill:#003359;fill-opacity:1;fill-rule:evenodd;stroke:none"
       d="m 265.2,9.78 c 0,0.365 0.3,0.66 0.66,0.66 0.36,0 0.66,-0.295 0.66,-0.66 0,-0.3645 -0.3,-0.66 -0.66,-0.66 -0.36,0 -0.66,0.2955 -0.66,0.66 z" /><path
       id="path336"
       style="fill:#4472c4;fill-opacity:1;fill-rule:evenodd;stroke:none"
       d="m 263.04,7.8 c 0,0.3314 0.3,0.6 0.66,0.6 0.36,0 0.66,-0.2686 0.66,-0.6 0,-0.3314 -0.3,-0.6 -0.66,-0.6 -0.36,0 -0.66,0.2686 -0.66,0.6 z" /><path
       id="path338"
       style="fill:#98c6ea;fill-opacity:1;fill-rule:evenodd;stroke:none"
       d="m 255.36,5.76 c 0,0.3314 0.3,0.6 0.66,0.6 0.36,0 0.66,-0.2686 0.66,-0.6 0,-0.3314 -0.3,-0.6 -0.66,-0.6 -0.36,0 -0.66,0.2686 -0.66,0.6 z" /><path
       id="path340"
       style="fill:#4472c4;fill-opacity:1;fill-rule:evenodd;stroke:none"
       d="m 259.8,9.78 c 0,0.365 0.3,0.66 0.66,0.66 0.36,0 0.66,-0.295 0.66,-0.66 0,-0.3645 -0.3,-0.66 -0.66,-0.66 -0.36,0 -0.66,0.2955 -0.66,0.66 z" /><path
       id="path342"
       style="fill:#0065bd;fill-opacity:1;fill-rule:evenodd;stroke:none"
       d="m 257.64,7.8 c 0,0.3314 0.27,0.6 0.6,0.6 0.33,0 0.6,-0.2686 0.6,-0.6 0,-0.3314 -0.27,-0.6 -0.6,-0.6 -0.33,0 -0.6,0.2686 -0.6,0.6 z" /><path
       id="path344"
       style="fill:#64a0c8;fill-opacity:1;fill-rule:evenodd;stroke:none"
       d="m 277.08,49.08 c 0,0.331 0.3,0.6 0.66,0.6 0.36,0 0.66,-0.269 0.66,-0.6 0,-0.331 -0.3,-0.6 -0.66,-0.6 -0.36,0 -0.66,0.269 -0.66,0.6 z" /><path
       id="path346"
       style="fill:#4472c4;fill-opacity:1;fill-rule:evenodd;stroke:none"
       d="m 281.52,53.1 c 0,0.365 0.3,0.66 0.66,0.66 0.36,0 0.66,-0.295 0.66,-0.66 0,-0.365 -0.3,-0.66 -0.66,-0.66 -0.36,0 -0.66,0.295 -0.66,0.66 z" /><path
       id="path348"
       style="fill:#98c6ea;fill-opacity:1;fill-rule:evenodd;stroke:none"
       d="m 279.36,51.06 c 0,0.365 0.27,0.66 0.6,0.66 0.33,0 0.6,-0.295 0.6,-0.66 0,-0.365 -0.27,-0.66 -0.6,-0.66 -0.33,0 -0.6,0.295 -0.6,0.66 z" /><path
       id="path350"
       style="fill:#003359;fill-opacity:1;fill-rule:evenodd;stroke:none"
       d="m 271.68,49.08 c 0,0.331 0.3,0.6 0.66,0.6 0.36,0 0.66,-0.269 0.66,-0.6 0,-0.331 -0.3,-0.6 -0.66,-0.6 -0.36,0 -0.66,0.269 -0.66,0.6 z" /><path
       id="path352"
       style="fill:#4472c4;fill-opacity:1;fill-rule:evenodd;stroke:none"
       d="m 276.12,53.1 c 0,0.365 0.27,0.66 0.6,0.66 0.33,0 0.6,-0.295 0.6,-0.66 0,-0.365 -0.27,-0.66 -0.6,-0.66 -0.33,0 -0.6,0.295 -0.6,0.66 z" /><path
       id="path354"
       style="fill:#4472c4;fill-opacity:1;fill-rule:evenodd;stroke:none"
       d="m 273.84,51.06 c 0,0.365 0.3,0.66 0.66,0.66 0.36,0 0.66,-0.295 0.66,-0.66 0,-0.365 -0.3,-0.66 -0.66,-0.66 -0.36,0 -0.66,0.295 -0.66,0.66 z" /><path
       id="path356"
       style="fill:#4472c4;fill-opacity:1;fill-rule:evenodd;stroke:none"
       d="m 266.28,49.08 c 0,0.331 0.3,0.6 0.66,0.6 0.36,0 0.66,-0.269 0.66,-0.6 0,-0.331 -0.3,-0.6 -0.66,-0.6 -0.36,0 -0.66,0.269 -0.66,0.6 z" /><path
       id="path358"
       style="fill:#98c6ea;fill-opacity:1;fill-rule:evenodd;stroke:none"
       d="m 270.6,53.1 c 0,0.365 0.3,0.66 0.66,0.66 0.36,0 0.66,-0.295 0.66,-0.66 0,-0.365 -0.3,-0.66 -0.66,-0.66 -0.36,0 -0.66,0.295 -0.66,0.66 z" /><path
       id="path360"
       style="fill:#64a0c8;fill-opacity:1;fill-rule:evenodd;stroke:none"
       d="m 268.44,51.06 c 0,0.365 0.3,0.66 0.66,0.66 0.36,0 0.66,-0.295 0.66,-0.66 0,-0.365 -0.3,-0.66 -0.66,-0.66 -0.36,0 -0.66,0.295 -0.66,0.66 z" /><path
       id="path362"
       style="fill:#003359;fill-opacity:1;fill-rule:evenodd;stroke:none"
       d="m 260.88,49.08 c 0,0.331 0.27,0.6 0.6,0.6 0.33,0 0.6,-0.269 0.6,-0.6 0,-0.331 -0.27,-0.6 -0.6,-0.6 -0.33,0 -0.6,0.269 -0.6,0.6 z" /><path
       id="path364"
       style="fill:#003359;fill-opacity:1;fill-rule:evenodd;stroke:none"
       d="m 265.2,53.1 c 0,0.365 0.3,0.66 0.66,0.66 0.36,0 0.66,-0.295 0.66,-0.66 0,-0.365 -0.3,-0.66 -0.66,-0.66 -0.36,0 -0.66,0.295 -0.66,0.66 z" /><path
       id="path366"
       style="fill:#4472c4;fill-opacity:1;fill-rule:evenodd;stroke:none"
       d="m 263.04,51.06 c 0,0.365 0.3,0.66 0.66,0.66 0.36,0 0.66,-0.295 0.66,-0.66 0,-0.365 -0.3,-0.66 -0.66,-0.66 -0.36,0 -0.66,0.295 -0.66,0.66 z" /><path
       id="path368"
       style="fill:#98c6ea;fill-opacity:1;fill-rule:evenodd;stroke:none"
       d="m 255.36,49.08 c 0,0.331 0.3,0.6 0.66,0.6 0.36,0 0.66,-0.269 0.66,-0.6 0,-0.331 -0.3,-0.6 -0.66,-0.6 -0.36,0 -0.66,0.269 -0.66,0.6 z" /><path
       id="path370"
       style="fill:#4472c4;fill-opacity:1;fill-rule:evenodd;stroke:none"
       d="m 259.8,53.1 c 0,0.365 0.3,0.66 0.66,0.66 0.36,0 0.66,-0.295 0.66,-0.66 0,-0.365 -0.3,-0.66 -0.66,-0.66 -0.36,0 -0.66,0.295 -0.66,0.66 z" /><path
       id="path372"
       style="fill:#0065bd;fill-opacity:1;fill-rule:evenodd;stroke:none"
       d="m 257.64,51.06 c 0,0.365 0.27,0.66 0.6,0.66 0.33,0 0.6,-0.295 0.6,-0.66 0,-0.365 -0.27,-0.66 -0.6,-0.66 -0.33,0 -0.6,0.295 -0.6,0.66 z" /><path
       id="path374"
       style="fill:#999999;fill-opacity:1;fill-rule:nonzero;stroke:none"
       d="M 269.66,18.123 V 37.8 h -1 V 18.123 Z m 1.5,18.677 -2,4 -2,-4 z" /><g
       id="g376"><g
         clip-path="url(#clipPath382)"
         id="g378"><text
   id="text386"
   style="font-variant:normal;font-weight:normal;font-size:6.024px;font-family:ArialMT;-inkscape-font-specification:ArialMT;writing-mode:lr-tb;fill:#000000;fill-opacity:1;fill-rule:nonzero;stroke:none"
   transform="matrix(1,0,0,-1,259.58,116.62)"><tspan
     id="tspan384"
     y="0"
     x="0 4.6866722 8.0360165 11.38536 13.43352 14.867232 18.216576">Queries</tspan></text>
</g></g><path
       id="path388"
       style="fill:#005293;fill-opacity:1;fill-rule:evenodd;stroke:none"
       d="m 12.24,74.64 h 0.44379 V 92.124 H 12.24 Z" /><path
       id="path390"
       style="fill:#004276;fill-opacity:1;fill-rule:evenodd;stroke:none"
       d="M 12.684,92.124 18.96,98.4 V 80.916 L 12.684,74.64 Z" /><path
       id="path392"
       style="fill:#3274a8;fill-opacity:1;fill-rule:evenodd;stroke:none"
       d="M 12.24,92.124 18.516,98.4 H 18.96 L 12.684,92.124 Z" /><path
       id="path394"
       style="fill:none;stroke:#ffffff;stroke-width:1;stroke-linecap:butt;stroke-linejoin:miter;stroke-miterlimit:10;stroke-dasharray:none;stroke-opacity:1"
       d="M 12.24,92.124 18.516,98.4 H 18.96 V 80.916 L 12.684,74.64 H 12.24 Z m 0,0 h 0.444 L 18.96,98.4 M 12.684,92.124 V 74.64" /><g
       id="g396"><g
         clip-path="url(#clipPath402)"
         id="g398"><text
   id="text406"
   style="font-variant:normal;font-weight:normal;font-size:6px;font-family:ArialMT;-inkscape-font-specification:ArialMT;writing-mode:lr-tb;fill:#000000;fill-opacity:1;fill-rule:nonzero;stroke:none"
   transform="matrix(1,0,0,-1,4.704,69.984)"><tspan
     id="tspan404"
     y="0"
     x="0 4.3319998 7.6680002 12.48 15.834 17.868">Camera</tspan></text>
</g></g><path
       id="path408"
       style="fill:#005293;fill-opacity:1;fill-rule:evenodd;stroke:none"
       d="M 0.6,15.36 H 24.51 V 33.27 H 0.6 Z" /><path
       id="path410"
       style="fill:#004276;fill-opacity:1;fill-rule:evenodd;stroke:none"
       d="m 24.51,33.27 5.97,5.97 V 21.33 l -5.97,-5.97 z" /><path
       id="path412"
       style="fill:#3274a8;fill-opacity:1;fill-rule:evenodd;stroke:none"
       d="m 0.6,33.27 5.97,5.97 h 23.91 l -5.97,-5.97 z" /><path
       id="path414"
       style="fill:none;stroke:#ffffff;stroke-width:1;stroke-linecap:butt;stroke-linejoin:miter;stroke-miterlimit:10;stroke-dasharray:none;stroke-opacity:1"
       d="m 0.6,33.27 5.97,5.97 H 30.48 V 21.33 L 24.51,15.36 H 0.6 Z m 0,0 h 23.91 l 5.97,5.97 M 24.51,33.27 V 15.36" /><g
       id="g416"><g
         clip-path="url(#clipPath422)"
         id="g418"><text
   id="text426"
   style="font-variant:normal;font-weight:normal;font-size:6.024px;font-family:ArialMT;-inkscape-font-specification:ArialMT;writing-mode:lr-tb;fill:#000000;fill-opacity:1;fill-rule:nonzero;stroke:none"
   transform="matrix(1,0,0,-1,6.072,9.216)"><tspan
     id="tspan424"
     y="0"
     x="0 4.3192081 7.6685519 11.035968 14.385312">Radar</tspan></text>
</g></g><g
       id="g428"><g
         clip-path="url(#clipPath434)"
         id="g430"><text
   id="text438"
   style="font-variant:normal;font-weight:normal;font-size:6.024px;font-family:ArialMT;-inkscape-font-specification:ArialMT;writing-mode:lr-tb;fill:#000000;fill-opacity:1;fill-rule:nonzero;stroke:none"
   transform="matrix(1,0,0,-1,0.36,116.62)"><tspan
     id="tspan436"
     y="0"
     x="0 3.957768 7.3071122 10.674528 13.686528 17.035872 19.06596 20.740631 25.065865 28.415209 30.08988">Sensor Data</tspan></text>
</g></g><path
       id="path440"
       style="fill:#003359;fill-opacity:1;fill-rule:evenodd;stroke:none"
       d="M 63.6,5.04 H 88.304 V 5.38435 H 63.6 Z" /><path
       id="path442"
       style="fill:#002948;fill-opacity:1;fill-rule:evenodd;stroke:none"
       d="M 88.304,5.3844 93.48,10.56 V 10.216 L 88.304,5.04 Z" /><path
       id="path444"
       style="fill:#325b7a;fill-opacity:1;fill-rule:evenodd;stroke:none"
       d="M 63.6,5.3844 68.776,10.56 H 93.48 L 88.304,5.3844 Z" /><path
       id="path446"
       style="fill:none;stroke:#ffffff;stroke-width:1;stroke-linecap:butt;stroke-linejoin:miter;stroke-miterlimit:10;stroke-dasharray:none;stroke-opacity:1"
       d="M 63.6,5.3844 68.776,10.56 H 93.48 V 10.216 L 88.304,5.04 H 63.6 Z m 0,0 H 88.304 L 93.48,10.56 M 88.304,5.3844 V 5.04" /><path
       id="path448"
       style="fill:#005293;fill-opacity:1;fill-rule:evenodd;stroke:none"
       d="m 75.12,39.24 h 0.44379 V 56.724 H 75.12 Z" /><path
       id="path450"
       style="fill:#004276;fill-opacity:1;fill-rule:evenodd;stroke:none"
       d="M 75.564,56.724 81.84,63 V 45.516 L 75.564,39.24 Z" /><path
       id="path452"
       style="fill:#3274a8;fill-opacity:1;fill-rule:evenodd;stroke:none"
       d="M 75.12,56.724 81.396,63 h 0.444 l -6.276,-6.276 z" /><path
       id="path454"
       style="fill:none;stroke:#ffffff;stroke-width:1;stroke-linecap:butt;stroke-linejoin:miter;stroke-miterlimit:10;stroke-dasharray:none;stroke-opacity:1"
       d="M 75.12,56.724 81.396,63 H 81.84 V 45.516 L 75.564,39.24 H 75.12 Z m 0,0 h 0.444 L 81.84,63 M 75.564,56.724 V 39.24" /><g
       id="g456"><g
         clip-path="url(#clipPath462)"
         id="g458"><text
   id="text466"
   style="font-variant:normal;font-weight:normal;font-size:6.024px;font-family:ArialMT;-inkscape-font-specification:ArialMT;writing-mode:lr-tb;fill:#000000;fill-opacity:1;fill-rule:nonzero;stroke:none"
   transform="matrix(1,0,0,-1,66.384,89.664)"><tspan
     id="tspan464"
     y="0"
     x="0 3.957768 7.3071122 10.319112 13.331112 16.680456 20.0298 23.391191">Backbone</tspan></text>
</g></g><g
       id="g468"><g
         clip-path="url(#clipPath474)"
         id="g470"><text
   id="text478"
   style="font-variant:normal;font-weight:normal;font-size:6px;font-family:ArialMT;-inkscape-font-specification:ArialMT;writing-mode:lr-tb;fill:#000000;fill-opacity:1;fill-rule:nonzero;stroke:none"
   transform="matrix(1,0,0,-1,74.904,64.848)"><tspan
     id="tspan476"
     y="0"
     x="0 3.96">AE</tspan></text>
</g></g><g
       id="g480"><g
         clip-path="url(#clipPath486)"
         id="g482"><text
   id="text490"
   style="font-variant:normal;font-weight:normal;font-size:6px;font-family:ArialMT;-inkscape-font-specification:ArialMT;writing-mode:lr-tb;fill:#000000;fill-opacity:1;fill-rule:nonzero;stroke:none"
   transform="matrix(1,0,0,-1,74.712,14.472)"><tspan
     id="tspan488"
     y="0"
     x="0 4.3200002">RA</tspan></text>
</g></g><g
       id="g492"><g
         clip-path="url(#clipPath498)"
         id="g494"><text
   id="text502"
   style="font-variant:normal;font-weight:normal;font-size:6.024px;font-family:ArialMT;-inkscape-font-specification:ArialMT;writing-mode:lr-tb;fill:#000000;fill-opacity:1;fill-rule:nonzero;stroke:none"
   transform="matrix(1,0,0,-1,64.44,116.62)"><tspan
     id="tspan500"
     y="0"
     x="0 3.957768 5.9938798 9.3432236 10.554048 13.903392 16.915392 18.590063 20.0298 23.379145 26.746559">Projections</tspan></text>
</g></g><path
       id="path504"
       style="fill:#003359;fill-opacity:1;fill-rule:evenodd;stroke:none"
       d="m 190.2,36 h 24.584 v 0.34434 H 190.2 Z" /><path
       id="path506"
       style="fill:#002948;fill-opacity:1;fill-rule:evenodd;stroke:none"
       d="m 214.78,36.344 5.18,5.176 V 41.176 L 214.78,36 Z" /><path
       id="path508"
       style="fill:#325b7a;fill-opacity:1;fill-rule:evenodd;stroke:none"
       d="m 190.2,36.344 5.18,5.176 h 24.58 l -5.18,-5.176 z" /><path
       id="path510"
       style="fill:none;stroke:#ffffff;stroke-width:1;stroke-linecap:butt;stroke-linejoin:miter;stroke-miterlimit:10;stroke-dasharray:none;stroke-opacity:1"
       d="m 190.2,36.344 5.18,5.176 h 24.58 V 41.176 L 214.78,36 H 190.2 Z m 0,0 h 24.58 l 5.18,5.176 m -5.18,-5.176 V 36" /><path
       id="path512"
       style="fill:#003359;fill-opacity:1;fill-rule:evenodd;stroke:none"
       d="m 194.04,38.4 h 19.229 v 0.26949 H 194.04 Z" /><path
       id="path514"
       style="fill:#002948;fill-opacity:1;fill-rule:evenodd;stroke:none"
       d="m 213.27,38.669 4.05,4.051 V 42.451 L 213.27,38.4 Z" /><path
       id="path516"
       style="fill:#325b7a;fill-opacity:1;fill-rule:evenodd;stroke:none"
       d="m 194.04,38.669 4.05,4.051 h 19.23 l -4.05,-4.051 z" /><path
       id="path518"
       style="fill:none;stroke:#ffffff;stroke-width:0.75;stroke-linecap:butt;stroke-linejoin:miter;stroke-miterlimit:10;stroke-dasharray:none;stroke-opacity:1"
       d="m 194.04,38.669 4.05,4.051 h 19.23 V 42.451 L 213.27,38.4 h -19.23 z m 0,0 h 19.23 l 4.05,4.051 m -4.05,-4.051 V 38.4" /><path
       id="path520"
       style="fill:#003359;fill-opacity:1;fill-rule:evenodd;stroke:none"
       d="m 197.88,40.56 h 13.267 v 0.18714 H 197.88 Z" /><path
       id="path522"
       style="fill:#002948;fill-opacity:1;fill-rule:evenodd;stroke:none"
       d="m 211.15,40.747 2.81,2.813 v -0.187 l -2.81,-2.813 z" /><path
       id="path524"
       style="fill:#325b7a;fill-opacity:1;fill-rule:evenodd;stroke:none"
       d="m 197.88,40.747 2.81,2.813 h 13.27 l -2.81,-2.813 z" /><path
       id="path526"
       style="fill:none;stroke:#ffffff;stroke-width:0.75;stroke-linecap:butt;stroke-linejoin:miter;stroke-miterlimit:10;stroke-dasharray:none;stroke-opacity:1"
       d="m 197.88,40.747 2.81,2.813 h 13.27 v -0.187 l -2.81,-2.813 h -13.27 z m 0,0 h 13.27 l 2.81,2.813 m -2.81,-2.813 V 40.56" /><path
       id="path528"
       style="fill:#005293;fill-opacity:1;fill-rule:evenodd;stroke:none"
       d="m 213.36,42.12 h 0.23775 v 9.3578 H 213.36 Z" /><path
       id="path530"
       style="fill:#004276;fill-opacity:1;fill-rule:evenodd;stroke:none"
       d="m 213.6,51.478 3.36,3.362 V 45.482 L 213.6,42.12 Z" /><path
       id="path532"
       style="fill:#3274a8;fill-opacity:1;fill-rule:evenodd;stroke:none"
       d="m 213.36,51.478 3.36,3.362 h 0.24 l -3.36,-3.362 z" /><path
       id="path534"
       style="fill:none;stroke:#ffffff;stroke-width:0.75;stroke-linecap:butt;stroke-linejoin:miter;stroke-miterlimit:10;stroke-dasharray:none;stroke-opacity:1"
       d="m 213.36,51.478 3.36,3.362 h 0.24 V 45.482 L 213.6,42.12 h -0.24 z m 0,0 h 0.24 l 3.36,3.362 M 213.6,51.478 V 42.12" /><path
       id="path536"
       style="fill:#005293;fill-opacity:1;fill-rule:evenodd;stroke:none"
       d="m 215.52,40.56 h 0.34869 V 54.589 H 215.52 Z" /><path
       id="path538"
       style="fill:#004276;fill-opacity:1;fill-rule:evenodd;stroke:none"
       d="m 215.87,54.589 4.93,4.931 V 45.491 l -4.93,-4.931 z" /><path
       id="path540"
       style="fill:#3274a8;fill-opacity:1;fill-rule:evenodd;stroke:none"
       d="m 215.52,54.589 4.93,4.931 h 0.35 l -4.93,-4.931 z" /><path
       id="path542"
       style="fill:none;stroke:#ffffff;stroke-width:0.75;stroke-linecap:butt;stroke-linejoin:miter;stroke-miterlimit:10;stroke-dasharray:none;stroke-opacity:1"
       d="m 215.52,54.589 4.93,4.931 h 0.35 V 45.491 l -4.93,-4.931 h -0.35 z m 0,0 h 0.35 l 4.93,4.931 m -4.93,-4.931 V 40.56" /><path
       id="path544"
       style="fill:#005293;fill-opacity:1;fill-rule:evenodd;stroke:none"
       d="m 218.16,39.24 h 0.44379 V 56.724 H 218.16 Z" /><path
       id="path546"
       style="fill:#004276;fill-opacity:1;fill-rule:evenodd;stroke:none"
       d="M 218.6,56.724 224.88,63 V 45.516 L 218.6,39.24 Z" /><path
       id="path548"
       style="fill:#3274a8;fill-opacity:1;fill-rule:evenodd;stroke:none"
       d="M 218.16,56.724 224.44,63 h 0.44 l -6.28,-6.276 z" /><path
       id="path550"
       style="fill:none;stroke:#ffffff;stroke-width:0.75;stroke-linecap:butt;stroke-linejoin:miter;stroke-miterlimit:10;stroke-dasharray:none;stroke-opacity:1"
       d="M 218.16,56.724 224.44,63 h 0.44 V 45.516 L 218.6,39.24 h -0.44 z m 0,0 h 0.44 L 224.88,63 M 218.6,56.724 V 39.24" /><g
       id="g552"><g
         clip-path="url(#clipPath558)"
         id="g554"><text
   id="text562"
   style="font-variant:normal;font-weight:normal;font-size:6.024px;font-family:ArialMT;-inkscape-font-specification:ArialMT;writing-mode:lr-tb;fill:#000000;fill-opacity:1;fill-rule:nonzero;stroke:none"
   transform="matrix(1,0,0,-1,201.41,120.77)"><tspan
     id="tspan560"
     y="0"
     x="0 4.3192081 7.6685519 11.035968">Dual</tspan></text>
</g></g><g
       id="g564"><g
         clip-path="url(#clipPath570)"
         id="g566"><text
   id="text574"
   style="font-variant:normal;font-weight:normal;font-size:6px;font-family:ArialMT;-inkscape-font-specification:ArialMT;writing-mode:lr-tb;fill:#000000;fill-opacity:1;fill-rule:nonzero;stroke:none"
   transform="matrix(1,0,0,-1,190.37,112.46)"><tspan
     id="tspan572"
     y="0"
     x="0 3.96 7.3140001 9.3479996 12.348 15.702 19.056 22.056 23.724001 25.17 28.17 31.524">Perspectives</tspan></text>
</g></g><g
       id="g576"><g
         clip-path="url(#clipPath582)"
         id="g578"><path
           id="path584"
           style="fill:none;stroke:#999999;stroke-width:0.5;stroke-linecap:butt;stroke-linejoin:miter;stroke-miterlimit:10;stroke-dasharray:none;stroke-opacity:1"
           d="M -4.2,109.68 H 38.32" /></g></g><path
       id="path586"
       style="fill:none;stroke:#999999;stroke-width:0.5;stroke-linecap:butt;stroke-linejoin:miter;stroke-miterlimit:10;stroke-dasharray:none;stroke-opacity:1"
       d="M 58.08,109.68 H 100.6" /><path
       id="path588"
       style="fill:none;stroke:#999999;stroke-width:0.5;stroke-linecap:butt;stroke-linejoin:miter;stroke-miterlimit:10;stroke-dasharray:none;stroke-opacity:1"
       d="M 121.08,109.68 H 163.6" /><path
       id="path590"
       style="fill:none;stroke:#999999;stroke-width:0.5;stroke-linecap:butt;stroke-linejoin:miter;stroke-miterlimit:10;stroke-dasharray:none;stroke-opacity:1"
       d="m 185.76,109.68 h 42.52" /><path
       id="path592"
       style="fill:none;stroke:#999999;stroke-width:0.5;stroke-linecap:butt;stroke-linejoin:miter;stroke-miterlimit:10;stroke-dasharray:none;stroke-opacity:1"
       d="M 249.48,109.68 H 292" /><g
       id="g594"><g
         clip-path="url(#clipPath600)"
         id="g596"><path
           id="path602"
           style="fill:none;stroke:#999999;stroke-width:0.5;stroke-linecap:butt;stroke-linejoin:miter;stroke-miterlimit:10;stroke-dasharray:none;stroke-opacity:1"
           d="m 309,109.68 h 42.52" /></g></g></g></svg>
